<svg width="90" height="91" viewBox="0 0 90 91" fill="none" xmlns="http://www.w3.org/2000/svg">
<path d="M14.989 15.1333H74.989C79.114 15.1333 82.489 18.5083 82.489 22.6333V67.6333C82.489 71.7583 79.114 75.1333 74.989 75.1333H14.989C10.864 75.1333 7.48901 71.7583 7.48901 67.6333V22.6333C7.48901 18.5083 10.864 15.1333 14.989 15.1333Z" fill="white"/>
<path d="M82.489 22.6333L44.989 48.8833L7.48901 22.6333" fill="white"/>
<path d="M82.489 22.6333C82.489 18.5083 79.114 15.1333 74.989 15.1333H14.989C10.864 15.1333 7.48901 18.5083 7.48901 22.6333M82.489 22.6333V67.6333C82.489 71.7583 79.114 75.1333 74.989 75.1333H14.989C10.864 75.1333 7.48901 71.7583 7.48901 67.6333V22.6333M82.489 22.6333L44.989 48.8833L7.48901 22.6333" stroke="#997DFF" stroke-width="5" stroke-linecap="round" stroke-linejoin="round"/>
</svg>
