<?xml version="1.0" encoding="utf-8"?>
<!-- Generator: Adobe Illustrator 26.2.1, SVG Export Plug-In . SVG Version: 6.00 Build 0)  -->
<svg version="1.1" id="_레이어_1" xmlns="http://www.w3.org/2000/svg" xmlns:xlink="http://www.w3.org/1999/xlink" x="0px"
	 y="0px" viewBox="0 0 45 45" style="enable-background:new 0 0 45 45;" xml:space="preserve">
<style type="text/css">
	.st0{fill:none;stroke:#997DFF;stroke-width:2.3;stroke-miterlimit:10;}
	.st1{fill:#997DFF;}
</style>
<path class="st0" d="M8.5,3.5h28c2.8,0,5,2.2,5,5v28c0,2.8-2.2,5-5,5h-28c-2.8,0-5-2.2-5-5v-28C3.5,5.7,5.7,3.5,8.5,3.5z"/>
<line class="st0" x1="22.9" y1="3.5" x2="22.9" y2="41.5"/>
<line class="st0" x1="13" y1="3.5" x2="13" y2="41.5"/>
<line class="st0" x1="32.8" y1="3.5" x2="32.8" y2="41.5"/>
<path class="st1" d="M15.1,25.2h-4.5c-0.6,0-1-0.5-1-1.2V5c0-0.6,0.5-1.2,1-1.2h4.5c0.6,0,1,0.5,1,1.2v19
	C16.2,24.6,15.7,25.2,15.1,25.2"/>
<path class="st1" d="M25.2,25.2h-4.5c-0.6,0-1-0.5-1-1.2V5c0-0.6,0.5-1.2,1-1.2h4.5c0.6,0,1,0.5,1,1.2v19
	C26.2,24.6,25.7,25.2,25.2,25.2"/>
<path class="st1" d="M35.1,25.2h-4.5c-0.6,0-1-0.5-1-1.2V5c0-0.6,0.5-1.2,1-1.2h4.5c0.6,0,1,0.5,1,1.2v19
	C36.1,24.6,35.7,25.2,35.1,25.2"/>
</svg>
