<?xml version="1.0" encoding="UTF-8"?>
<svg id="_레이어_1" data-name="레이어 1" xmlns="http://www.w3.org/2000/svg" viewBox="0 0 45 45">
  <defs>
    <style>
      .cls-1 {
        fill: #a3a2e5;
      }

      .cls-2 {
        fill: none;
        stroke: #a3a2e5;
        stroke-miterlimit: 10;
        stroke-width: 2.3px;
      }
    </style>
  </defs>
  <rect class="cls-2" x="3.5" y="3.5" width="38" height="38" rx="5" ry="5"/>
  <line class="cls-2" x1="22.92" y1="3.5" x2="22.92" y2="41.5"/>
  <line class="cls-2" x1="13" y1="3.5" x2="13" y2="41.5"/>
  <line class="cls-2" x1="32.83" y1="3.5" x2="32.83" y2="41.5"/>
  <path class="cls-1" d="M15.14,25.18h-4.51c-.57,0-1.03-.52-1.03-1.17V5.04c0-.64,.46-1.17,1.03-1.17h4.51c.56,0,1.03,.53,1.03,1.17V24.01c0,.64-.46,1.17-1.03,1.17"/>
  <path class="cls-1" d="M25.17,25.18h-4.51c-.57,0-1.03-.52-1.03-1.17V5.04c0-.64,.46-1.17,1.03-1.17h4.51c.56,0,1.03,.53,1.03,1.17V24.01c0,.64-.46,1.17-1.03,1.17"/>
  <path class="cls-1" d="M35.09,25.18h-4.51c-.57,0-1.03-.52-1.03-1.17V5.04c0-.64,.46-1.17,1.03-1.17h4.51c.56,0,1.03,.53,1.03,1.17V24.01c0,.64-.46,1.17-1.03,1.17"/>
</svg>