<?xml version="1.0" encoding="UTF-8"?>
<svg id="_레이어_1" data-name="레이어 1" xmlns="http://www.w3.org/2000/svg" viewBox="0 0 45 45">
  <defs>
    <style>
      .cls-1 {
        fill: #a3a2e5;
      }

      .cls-2 {
        fill: none;
        stroke: #a3a2e5;
        stroke-miterlimit: 10;
        stroke-width: 2.5px;
      }
    </style>
  </defs>
  <path class="cls-2" d="M22.42,40.84c-11.12,3.28-16.41-4.39-12.28-8.38,2.07-2,1.94-4.92,.45-6.35-1.51-1.44-4.71-2.19-5.93-4.35-.52-.92-1.03-1.92-1.07-3.8-.18-7.67,8.56-12.06,8.56-12.06,0,0,12.91-7.22,23.61,2.66,10.01,9.24,7.36,26.16-13.35,32.27Z"/>
  <path class="cls-1" d="M21.44,11.77c2.9,0,2.9-4.5,0-4.5s-2.9,4.5,0,4.5"/>
  <path class="cls-1" d="M29.68,13.15c2.9,0,2.9-4.5,0-4.5s-2.9,4.5,0,4.5"/>
  <path class="cls-1" d="M34.57,20.47c2.9,0,2.9-4.5,0-4.5s-2.9,4.5,0,4.5"/>
  <path class="cls-1" d="M33.15,28.98c2.9,0,2.9-4.5,0-4.5s-2.9,4.5,0,4.5"/>
  <path class="cls-1" d="M26.68,34.54c2.9,0,2.9-4.5,0-4.5s-2.9,4.5,0,4.5"/>
</svg>