<?xml version="1.0" encoding="utf-8"?>
<!-- Generator: Adobe Illustrator 26.2.1, SVG Export Plug-In . SVG Version: 6.00 Build 0)  -->
<svg version="1.1" id="_레이어_1" xmlns="http://www.w3.org/2000/svg" xmlns:xlink="http://www.w3.org/1999/xlink" x="0px"
	 y="0px" viewBox="0 0 45 45" style="enable-background:new 0 0 45 45;" xml:space="preserve">
<style type="text/css">
	.st0{fill:none;stroke:#997DFF;stroke-width:2.5;stroke-miterlimit:10;}
	.st1{fill:#997DFF;}
</style>
<ellipse class="st0" cx="22.5" cy="26.9" rx="18.7" ry="14.7"/>
<path class="st0" d="M3.8,26.4c0,0-0.7-8.3-0.7-14.2s3.6-16.6,13.2,0.7"/>
<path class="st0" d="M41.2,26.4c0,0,0.7-8.3,0.7-14.2s-3.6-16.6-13.2,0.7"/>
<path class="st1" d="M20.8,30.2c0.9,1.3,2.4,1.3,3.3,0l0.3-0.4c0.9-1.3,0.4-2.3-1.2-2.3h-1.5c-1.6,0-2.1,1-1.2,2.3L20.8,30.2
	L20.8,30.2z"/>
<path class="st1" d="M29.3,26.7c2.9,0,2.9-4.5,0-4.5S26.4,26.7,29.3,26.7"/>
<path class="st1" d="M15.7,26.7c2.9,0,2.9-4.5,0-4.5S12.8,26.7,15.7,26.7"/>
</svg>
