<?xml version="1.0" encoding="utf-8"?>
<!-- Generator: Adobe Illustrator 26.2.1, SVG Export Plug-In . SVG Version: 6.00 Build 0)  -->
<svg version="1.1" id="_레이어_1" xmlns="http://www.w3.org/2000/svg" xmlns:xlink="http://www.w3.org/1999/xlink" x="0px"
	 y="0px" viewBox="0 0 45 45" style="enable-background:new 0 0 45 45;" xml:space="preserve">
<style type="text/css">
	.st0{fill:none;stroke:#997DFF;stroke-width:2.5;stroke-miterlimit:10;}
	.st1{fill:#997DFF;}
</style>
<path class="st0" d="M22.4,40.8C11.3,44.1,6,36.5,10.1,32.5c2.1-2,1.9-4.9,0.4-6.4c-1.5-1.4-4.7-2.2-5.9-4.4c-0.5-0.9-1-1.9-1.1-3.8
	c-0.2-7.7,8.6-12.1,8.6-12.1s12.9-7.2,23.6,2.7C45.8,17.8,43.1,34.7,22.4,40.8L22.4,40.8z"/>
<path class="st1" d="M21.4,11.8c2.9,0,2.9-4.5,0-4.5S18.5,11.8,21.4,11.8"/>
<path class="st1" d="M29.7,13.1c2.9,0,2.9-4.5,0-4.5S26.8,13.1,29.7,13.1"/>
<path class="st1" d="M34.6,20.5c2.9,0,2.9-4.5,0-4.5S31.7,20.5,34.6,20.5"/>
<path class="st1" d="M33.2,29c2.9,0,2.9-4.5,0-4.5S30.3,29,33.2,29"/>
<path class="st1" d="M26.7,34.5c2.9,0,2.9-4.5,0-4.5S23.8,34.5,26.7,34.5"/>
</svg>
