<svg width="45" height="45" viewBox="0 0 45 45" fill="none" xmlns="http://www.w3.org/2000/svg">
<path fill-rule="evenodd" clip-rule="evenodd" d="M5.625 20.625C5.625 13.5544 5.625 10.0181 7.8225 7.8225C10.0181 5.625 13.5544 5.625 20.625 5.625H24.375C31.4456 5.625 34.9819 5.625 37.1775 7.8225C39.375 10.0181 39.375 13.5544 39.375 20.625V24.375C39.375 31.4456 39.375 34.9819 37.1775 37.1775C34.9819 39.375 31.4456 39.375 24.375 39.375H20.625C13.5544 39.375 10.0181 39.375 7.8225 37.1775C5.625 34.9819 5.625 31.4456 5.625 24.375V20.625ZM33.75 14.0625C33.75 14.8084 33.4537 15.5238 32.9262 16.0512C32.3988 16.5787 31.6834 16.875 30.9375 16.875C30.1916 16.875 29.4762 16.5787 28.9488 16.0512C28.4213 15.5238 28.125 14.8084 28.125 14.0625C28.125 13.3166 28.4213 12.6012 28.9488 12.0738C29.4762 11.5463 30.1916 11.25 30.9375 11.25C31.6834 11.25 32.3988 11.5463 32.9262 12.0738C33.4537 12.6012 33.75 13.3166 33.75 14.0625ZM26.25 24.375C26.25 25.3696 25.8549 26.3234 25.1516 27.0266C24.4484 27.7299 23.4946 28.125 22.5 28.125C21.5054 28.125 20.5516 27.7299 19.8484 27.0266C19.1451 26.3234 18.75 25.3696 18.75 24.375C18.75 23.3804 19.1451 22.4266 19.8484 21.7234C20.5516 21.0201 21.5054 20.625 22.5 20.625C23.4946 20.625 24.4484 21.0201 25.1516 21.7234C25.8549 22.4266 26.25 23.3804 26.25 24.375ZM30 24.375C30 26.3641 29.2098 28.2718 27.8033 29.6783C26.3968 31.0848 24.4891 31.875 22.5 31.875C20.5109 31.875 18.6032 31.0848 17.1967 29.6783C15.7902 28.2718 15 26.3641 15 24.375C15 22.3859 15.7902 20.4782 17.1967 19.0717C18.6032 17.6652 20.5109 16.875 22.5 16.875C24.4891 16.875 26.3968 17.6652 27.8033 19.0717C29.2098 20.4782 30 22.3859 30 24.375Z" fill="white"/>
</svg>
