<svg width="45" height="45" viewBox="0 0 45 45" fill="none" xmlns="http://www.w3.org/2000/svg">
<path fill-rule="evenodd" clip-rule="evenodd" d="M22.75 8C24.3531 8 25.9975 8.04125 27.5912 8.10875L29.4738 8.19875L31.2756 8.30563L32.9631 8.42L34.5044 8.54C36.177 8.66802 37.7508 9.38178 38.9491 10.5557C40.1474 11.7296 40.8933 13.2885 41.0556 14.9581L41.1306 15.755L41.2713 17.4612C41.4025 19.2294 41.5 21.1569 41.5 23C41.5 24.8431 41.4025 26.7706 41.2713 28.5388L41.1306 30.245C41.1063 30.5188 41.0819 30.7831 41.0556 31.0419C40.8932 32.7118 40.1471 34.2709 38.9484 35.4449C37.7497 36.6188 36.1754 37.3324 34.5025 37.46L32.965 37.5781L31.2775 37.6944L29.4738 37.8012L27.5912 37.8912C25.9784 37.9613 24.3643 37.9976 22.75 38C21.1357 37.9976 19.5216 37.9613 17.9088 37.8912L16.0262 37.8012L14.2244 37.6944L12.5369 37.5781L10.9956 37.46C9.32303 37.332 7.74916 36.6182 6.55089 35.4443C5.35261 34.2704 4.6067 32.7115 4.44437 31.0419L4.36938 30.245L4.22875 28.5388C4.08538 26.6959 4.00908 24.8484 4 23C4 21.1569 4.0975 19.2294 4.22875 17.4612L4.36938 15.755C4.39375 15.4812 4.41812 15.2169 4.44437 14.9581C4.60664 13.2888 5.35228 11.7302 6.55017 10.5563C7.74806 9.38238 9.32149 8.66844 10.9938 8.54L12.5331 8.42L14.2206 8.30563L16.0244 8.19875L17.9069 8.10875C19.5203 8.03869 21.135 8.00243 22.75 8ZM19 18.4531V27.5469C19 28.4131 19.9375 28.9531 20.6875 28.5219L28.5625 23.975C28.7339 23.8764 28.8762 23.7343 28.9752 23.5631C29.0741 23.392 29.1263 23.1977 29.1263 23C29.1263 22.8023 29.0741 22.608 28.9752 22.4369C28.8762 22.2657 28.7339 22.1236 28.5625 22.025L20.6875 17.48C20.5164 17.3812 20.3224 17.3292 20.1248 17.3293C19.9273 17.3293 19.7332 17.3814 19.5622 17.4802C19.3911 17.579 19.2491 17.7211 19.1505 17.8922C19.0518 18.0634 18.9999 18.2575 19 18.455V18.4531Z" fill="white"/>
</svg>
